<svg width="968" height="288" viewBox="0 0 968 288" fill="none" xmlns="http://www.w3.org/2000/svg">
<path fill-rule="evenodd" clip-rule="evenodd" d="M111.553 1.76797L242.297 1.76794C242.297 1.76794 242.297 33.0723 207.309 47.8045H111.553C111.553 47.8045 82.0895 52.4077 83.0102 80.0301H144.699C186.38 80.0301 185.354 110.281 185.018 120.198V120.198C184.953 122.111 184.914 123.267 185.211 123.304C185.508 123.341 185.613 122.245 185.793 120.38C186.729 110.657 189.679 80.0301 232.169 80.0301C232.169 80.0301 271.76 80.0301 271.76 123.304C271.76 166.579 222.041 169.341 222.041 169.341C222.961 185.914 212.833 190.518 212.833 190.518C212.833 190.518 230.327 196.042 234.931 218.14C239.534 240.237 228.486 281.67 159.431 282.591C81.1688 283.634 65.5164 212.615 65.5164 212.615V169.341H49.864V282.591H31.4493V169.341C31.4493 169.341 2.25347 157.346 1.06524 128.829C-0.776218 84.6337 36.9737 79.1093 36.9737 79.1093C36.9737 79.1093 36.9737 1.76797 111.553 1.76797ZM36.051 98.4453H109.709C109.709 98.4453 99.5814 108.573 100.502 127.909C101.423 147.244 115.234 172.104 147.459 170.262C179.685 168.421 184.289 141.72 184.289 141.72C184.289 141.72 198.663 152.184 200.862 162.896C203.064 173.626 193.496 186.835 193.496 186.835C193.496 186.835 175.081 182.631 138.252 189.598C101.423 196.565 94.9778 231.951 94.9778 231.951C87.2215 225.432 83.0083 208.933 83.0083 208.933V115.018H63.6729V151.848H36.051C36.051 151.848 18.5572 144.482 18.5572 124.226C18.5572 103.97 36.051 98.4453 36.051 98.4453ZM255.183 124.225C255.183 138.971 243.229 150.926 228.482 150.926C215.199 150.926 204.181 141.227 202.125 128.524C203.685 136.057 210.358 141.719 218.354 141.719C227.507 141.719 234.927 134.299 234.927 125.145C234.927 115.992 227.507 108.572 218.354 108.572C209.339 108.572 202.005 115.77 201.786 124.732C201.782 124.563 201.781 124.394 201.781 124.225C201.781 109.478 213.735 97.5236 228.482 97.5236C243.229 97.5236 255.183 109.478 255.183 124.225ZM141.935 152.768C156.682 152.768 168.637 140.813 168.637 126.066C168.637 111.32 156.682 99.3652 141.935 99.3652C128.651 99.3652 117.633 109.066 115.578 121.77C117.137 114.236 123.811 108.572 131.807 108.572C140.96 108.572 148.38 115.992 148.38 125.145C148.38 134.299 140.96 141.719 131.807 141.719C122.791 141.719 115.456 134.518 115.239 125.554C115.236 125.725 115.234 125.895 115.234 126.066C115.234 140.813 127.189 152.768 141.935 152.768ZM131.809 224.584H199.943C199.943 224.584 191.657 246.682 166.797 246.682C141.937 246.682 131.809 224.584 131.809 224.584Z" fill="#01A6FF"/>
<path d="M242.297 1.76794H243.217V0.847214L242.297 0.847214V1.76794ZM111.553 1.76797V2.6887V1.76797ZM207.309 47.8045V48.7252H207.495L207.666 48.653L207.309 47.8045ZM111.553 47.8045V46.8837H111.481L111.411 46.8948L111.553 47.8045ZM83.0102 80.0301L82.09 80.0607L82.1197 80.9508H83.0102V80.0301ZM185.018 120.198L184.098 120.167L184.097 120.183V120.198H185.018ZM185.018 120.198L185.938 120.23L185.938 120.214V120.198H185.018ZM185.211 123.304L185.097 124.218H185.097L185.211 123.304ZM185.793 120.38L184.876 120.292L185.793 120.38ZM222.041 169.341L221.989 168.422L221.07 168.473L221.121 169.392L222.041 169.341ZM212.833 190.518L212.452 189.68L210.267 190.673L212.556 191.396L212.833 190.518ZM159.431 282.591L159.443 283.511L159.431 282.591ZM65.5164 212.615H64.5956V212.715L64.6172 212.813L65.5164 212.615ZM65.5164 169.341H66.4371V168.42H65.5164V169.341ZM49.864 169.341V168.42H48.9432V169.341H49.864ZM49.864 282.591V283.511H50.7847V282.591H49.864ZM31.4493 282.591H30.5286V283.511H31.4493V282.591ZM31.4493 169.341H32.3701V168.724L31.7992 168.489L31.4493 169.341ZM1.06524 128.829L1.98518 128.79L1.06524 128.829ZM36.9737 79.1093L37.1071 80.0203L37.8945 79.9051V79.1093H36.9737ZM109.709 98.4453L110.36 99.0963L111.932 97.5245H109.709V98.4453ZM36.051 98.4453V97.5245H35.9091L35.7737 97.5673L36.051 98.4453ZM100.502 127.909L101.422 127.865L100.502 127.909ZM147.459 170.262L147.407 169.343L147.459 170.262ZM184.289 141.72L184.831 140.975L183.633 140.103L183.381 141.563L184.289 141.72ZM200.862 162.896L201.764 162.711L200.862 162.896ZM193.496 186.835L193.291 187.733L193.884 187.869L194.242 187.376L193.496 186.835ZM138.252 189.598L138.081 188.693L138.252 189.598ZM94.9778 231.951L94.3854 232.656L95.5994 233.676L95.8836 232.116L94.9778 231.951ZM83.0083 208.933H82.0875V209.049L82.1161 209.161L83.0083 208.933ZM83.0083 115.018H83.929V114.098H83.0083V115.018ZM63.6729 115.018V114.098H62.7522V115.018H63.6729ZM63.6729 151.848V152.768H64.5937V151.848H63.6729ZM36.051 151.848L35.6937 152.696L35.8651 152.768H36.051V151.848ZM202.125 128.524L203.027 128.337L201.216 128.671L202.125 128.524ZM201.786 124.732L200.865 124.749L202.706 124.755L201.786 124.732ZM115.578 121.77L114.669 121.623L116.48 121.957L115.578 121.77ZM115.239 125.554L116.16 125.532L114.318 125.537L115.239 125.554ZM199.943 224.584L200.805 224.907L201.272 223.663H199.943V224.584ZM131.809 224.584V223.663H130.374L130.972 224.968L131.809 224.584ZM242.297 0.847214L111.553 0.847238V2.6887L242.297 2.68867V0.847214ZM207.666 48.653C225.4 41.186 234.305 29.4933 238.762 19.6412C240.987 14.7232 242.1 10.2725 242.657 7.04616C242.936 5.43248 243.076 4.12329 243.146 3.21273C243.181 2.75738 243.199 2.40151 243.208 2.15685C243.213 2.03452 243.215 1.93997 243.216 1.87467C243.217 1.84201 243.217 1.81667 243.217 1.79883C243.217 1.7899 243.217 1.78285 243.217 1.7777C243.217 1.77512 243.217 1.77302 243.217 1.77139C243.217 1.77058 243.217 1.76972 243.217 1.76931C243.217 1.76857 243.217 1.76794 242.297 1.76794C241.376 1.76794 241.376 1.76756 241.376 1.7673C241.376 1.76737 241.376 1.76722 241.376 1.76736C241.376 1.76764 241.376 1.76839 241.376 1.76961C241.376 1.77205 241.376 1.77637 241.376 1.78255C241.376 1.79491 241.375 1.8147 241.375 1.84173C241.374 1.89578 241.372 1.97881 241.368 2.08935C241.36 2.31045 241.343 2.64152 241.31 3.07093C241.244 3.92987 241.111 5.18143 240.843 6.73273C240.307 9.83639 239.233 14.1325 237.084 18.8822C232.794 28.3653 224.206 39.6908 206.952 46.9559L207.666 48.653ZM111.553 48.7252H207.309V46.8837H111.553V48.7252ZM83.9305 79.9994C83.4837 66.5967 90.3765 58.8144 97.4298 54.3362C100.969 52.0892 104.544 50.6804 107.24 49.8337C108.586 49.4109 109.708 49.1297 110.49 48.9547C110.881 48.8673 111.186 48.8065 111.392 48.7678C111.495 48.7485 111.573 48.7348 111.624 48.726C111.65 48.7216 111.668 48.7185 111.68 48.7165C111.686 48.7156 111.69 48.7149 111.693 48.7145C111.694 48.7143 111.695 48.7142 111.695 48.7141C111.695 48.7141 111.695 48.7141 111.696 48.7141C111.695 48.7141 111.695 48.7142 111.553 47.8045C111.411 46.8948 111.41 46.8949 111.41 46.895C111.409 46.895 111.409 46.8951 111.408 46.8952C111.406 46.8955 111.404 46.8958 111.402 46.8961C111.397 46.8969 111.391 46.8979 111.383 46.8993C111.366 46.902 111.343 46.9059 111.313 46.911C111.252 46.9214 111.165 46.9368 111.052 46.958C110.827 47.0003 110.501 47.0653 110.088 47.1577C109.262 47.3424 108.089 47.6366 106.688 48.0769C103.888 48.9565 100.155 50.4249 96.4428 52.7816C88.9945 57.5106 81.616 65.841 82.09 80.0607L83.9305 79.9994ZM144.699 79.1093H83.0102V80.9508H144.699V79.1093ZM185.938 120.229C186.106 115.285 186.47 104.998 181.419 95.9465C176.31 86.7909 165.796 79.1093 144.699 79.1093V80.9508C165.283 80.9508 175.096 88.3946 179.811 96.8438C184.583 105.396 184.266 115.194 184.098 120.167L185.938 120.229ZM185.938 120.198V120.198H184.097V120.198H185.938ZM185.326 122.391C185.619 122.427 185.794 122.604 185.869 122.71C185.932 122.8 185.944 122.865 185.938 122.841C185.927 122.8 185.908 122.676 185.899 122.421C185.881 121.929 185.905 121.201 185.938 120.23L184.098 120.167C184.066 121.108 184.038 121.915 184.058 122.488C184.069 122.767 184.091 123.058 184.155 123.303C184.186 123.424 184.243 123.6 184.361 123.767C184.49 123.951 184.73 124.172 185.097 124.218L185.326 122.391ZM184.876 120.292C184.785 121.241 184.717 121.94 184.638 122.401C184.619 122.512 184.601 122.598 184.585 122.664C184.577 122.696 184.57 122.721 184.564 122.738C184.559 122.756 184.555 122.763 184.556 122.762C184.556 122.762 184.563 122.746 184.579 122.721C184.594 122.696 184.626 122.65 184.679 122.599C184.804 122.48 185.034 122.354 185.326 122.391L185.097 124.218C185.463 124.264 185.761 124.112 185.949 123.933C186.11 123.779 186.199 123.602 186.248 123.489C186.348 123.256 186.409 122.973 186.453 122.711C186.547 122.167 186.621 121.385 186.709 120.468L184.876 120.292ZM232.169 79.1093C210.668 79.1093 199.005 86.8782 192.642 96.0334C186.327 105.122 185.345 115.43 184.876 120.292L186.709 120.468C187.178 115.607 188.139 105.74 194.155 97.0843C200.124 88.4953 211.18 80.9508 232.169 80.9508V79.1093ZM272.681 123.304C272.681 112.341 270.171 104.056 266.36 97.807C262.55 91.56 257.47 87.3989 252.406 84.6314C247.347 81.8667 242.298 80.4886 238.52 79.8004C236.629 79.4559 235.051 79.2832 233.941 79.1966C233.387 79.1533 232.949 79.1315 232.647 79.1205C232.496 79.115 232.379 79.1122 232.298 79.1108C232.258 79.1101 232.227 79.1097 232.205 79.1095C232.194 79.1094 232.186 79.1094 232.18 79.1094C232.177 79.1093 232.174 79.1093 232.172 79.1093C232.171 79.1093 232.171 79.1093 232.17 79.1093C232.169 79.1093 232.169 79.1093 232.169 80.0301C232.169 80.9508 232.168 80.9508 232.168 80.9508C232.168 80.9508 232.168 80.9508 232.168 80.9508C232.169 80.9508 232.17 80.9508 232.172 80.9508C232.175 80.9508 232.181 80.9508 232.189 80.9509C232.206 80.9511 232.231 80.9513 232.266 80.952C232.335 80.9532 232.441 80.9557 232.58 80.9607C232.858 80.9709 233.27 80.9913 233.798 81.0325C234.854 81.1149 236.369 81.2803 238.19 81.612C241.835 82.2761 246.684 83.6027 251.523 86.2473C256.357 88.889 261.175 92.8419 264.788 98.7659C268.4 104.688 270.839 112.631 270.839 123.304H272.681ZM222.041 169.341C222.092 170.26 222.092 170.26 222.093 170.26C222.093 170.26 222.094 170.26 222.095 170.26C222.098 170.26 222.1 170.26 222.104 170.26C222.111 170.259 222.121 170.258 222.134 170.258C222.16 170.256 222.198 170.254 222.247 170.25C222.346 170.243 222.49 170.233 222.677 170.217C223.05 170.185 223.594 170.133 224.285 170.052C225.665 169.89 227.632 169.609 229.99 169.136C234.703 168.191 240.999 166.472 247.306 163.377C259.946 157.174 272.681 145.396 272.681 123.304H270.839C270.839 144.487 258.714 155.727 246.495 161.724C240.372 164.729 234.238 166.406 229.628 167.33C227.325 167.792 225.408 168.066 224.069 168.223C223.4 168.302 222.876 168.352 222.521 168.382C222.344 168.397 222.209 168.407 222.119 168.413C222.074 168.416 222.041 168.418 222.019 168.42C222.008 168.42 222 168.421 221.995 168.421C221.993 168.421 221.991 168.422 221.99 168.422C221.99 168.422 221.99 168.422 221.989 168.422C221.989 168.422 221.989 168.422 222.041 169.341ZM212.833 190.518C213.214 191.356 213.215 191.356 213.216 191.355C213.216 191.355 213.216 191.355 213.217 191.355C213.218 191.354 213.219 191.354 213.221 191.353C213.223 191.352 213.227 191.35 213.231 191.348C213.239 191.345 213.249 191.34 213.262 191.333C213.287 191.321 213.322 191.304 213.366 191.282C213.452 191.238 213.574 191.173 213.726 191.086C214.028 190.911 214.45 190.648 214.948 190.28C215.945 189.544 217.249 188.389 218.519 186.696C221.07 183.295 223.432 177.785 222.96 169.29L221.121 169.392C221.57 177.469 219.328 182.548 217.046 185.592C215.898 187.121 214.728 188.153 213.854 188.799C213.417 189.121 213.055 189.347 212.808 189.489C212.684 189.561 212.589 189.611 212.528 189.642C212.498 189.658 212.476 189.668 212.463 189.674C212.456 189.678 212.452 189.68 212.45 189.68C212.449 189.681 212.449 189.681 212.449 189.681C212.45 189.681 212.45 189.681 212.45 189.68C212.451 189.68 212.451 189.68 212.451 189.68C212.452 189.68 212.452 189.68 212.833 190.518ZM235.832 217.952C233.482 206.672 227.83 199.592 222.747 195.336C220.209 193.212 217.817 191.793 216.053 190.904C215.171 190.459 214.445 190.146 213.935 189.943C213.68 189.841 213.479 189.767 213.339 189.717C213.269 189.693 213.214 189.674 213.176 189.661C213.157 189.655 213.142 189.65 213.131 189.646C213.125 189.644 213.121 189.643 213.117 189.642C213.116 189.641 213.114 189.641 213.113 189.641C213.113 189.64 213.112 189.64 213.112 189.64C213.111 189.64 213.111 189.64 212.833 190.518C212.556 191.396 212.556 191.396 212.555 191.395C212.555 191.395 212.555 191.395 212.555 191.395C212.555 191.395 212.555 191.395 212.555 191.396C212.556 191.396 212.558 191.396 212.561 191.397C212.567 191.399 212.577 191.403 212.591 191.407C212.619 191.417 212.664 191.432 212.723 191.453C212.842 191.495 213.021 191.561 213.253 191.654C213.718 191.839 214.394 192.13 215.224 192.548C216.884 193.385 219.153 194.729 221.565 196.748C226.379 200.778 231.776 207.51 234.029 218.327L235.832 217.952ZM159.443 283.511C194.153 283.048 214.476 272.396 225.516 258.889C236.538 245.404 238.181 229.227 235.832 217.952L234.029 218.327C236.284 229.15 234.705 244.737 224.09 257.724C213.493 270.688 193.763 281.212 159.419 281.67L159.443 283.511ZM65.5164 212.615C64.6172 212.813 64.6174 212.814 64.6176 212.815C64.6178 212.816 64.618 212.817 64.6184 212.819C64.619 212.821 64.6198 212.825 64.6209 212.83C64.6232 212.84 64.6264 212.854 64.6306 212.872C64.639 212.909 64.6514 212.963 64.668 213.032C64.7012 213.172 64.7513 213.377 64.8196 213.642C64.9561 214.173 65.1657 214.947 65.4598 215.929C66.0478 217.893 66.9743 220.691 68.3315 224.041C71.0451 230.74 75.4861 239.664 82.3983 248.559C96.2429 266.375 119.98 284.037 159.443 283.511L159.419 281.67C120.619 282.187 97.3996 264.862 83.8524 247.429C77.0688 238.7 72.7053 229.934 70.0383 223.35C68.7053 220.059 67.7975 217.316 67.2238 215.401C66.937 214.443 66.7339 213.692 66.603 213.183C66.5375 212.929 66.4901 212.735 66.4593 212.606C66.4439 212.541 66.4327 212.493 66.4255 212.461C66.4219 212.445 66.4192 212.434 66.4176 212.426C66.4168 212.423 66.4162 212.42 66.4158 212.418C66.4157 212.418 66.4156 212.417 66.4155 212.417C66.4155 212.417 66.4155 212.417 65.5164 212.615ZM64.5956 169.341V212.615H66.4371V169.341H64.5956ZM49.864 170.262H65.5164V168.42H49.864V170.262ZM50.7847 282.591V169.341H48.9432V282.591H50.7847ZM31.4493 283.511H49.864V281.67H31.4493V283.511ZM30.5286 169.341V282.591H32.3701V169.341H30.5286ZM0.145312 128.867C0.75343 143.462 8.53375 153.807 16.0941 160.47C19.8759 163.802 23.6171 166.228 26.4131 167.821C27.812 168.618 28.9766 169.208 29.7946 169.6C30.2037 169.796 30.5263 169.943 30.7484 170.041C30.8594 170.09 30.9454 170.127 31.0045 170.153C31.034 170.165 31.0569 170.175 31.0728 170.181C31.0807 170.185 31.0869 170.187 31.0914 170.189C31.0936 170.19 31.0954 170.191 31.0968 170.191C31.0974 170.192 31.0981 170.192 31.0984 170.192C31.099 170.192 31.0995 170.193 31.4493 169.341C31.7992 168.489 31.7995 168.489 31.7996 168.489C31.7995 168.489 31.7995 168.489 31.7993 168.489C31.7988 168.489 31.798 168.489 31.7967 168.488C31.7941 168.487 31.7897 168.485 31.7836 168.483C31.7714 168.478 31.7524 168.47 31.7266 168.459C31.6752 168.437 31.597 168.403 31.494 168.357C31.2878 168.266 30.982 168.127 30.5904 167.939C29.8071 167.564 28.6816 166.994 27.3247 166.221C24.6094 164.674 20.9774 162.319 17.3116 159.088C9.97702 152.624 2.56529 142.713 1.98518 128.79L0.145312 128.867ZM36.9737 79.1093C36.8404 78.1983 36.8398 78.1984 36.839 78.1985C36.8385 78.1986 36.8375 78.1987 36.8366 78.1988C36.8348 78.1991 36.8324 78.1995 36.8294 78.1999C36.8234 78.2008 36.8152 78.2021 36.8047 78.2037C36.7838 78.207 36.7539 78.2117 36.7153 78.2181C36.6381 78.2309 36.5263 78.2501 36.3822 78.2769C36.0939 78.3304 35.6763 78.414 35.1482 78.5358C34.0924 78.7795 32.5937 79.1764 30.8044 79.7924C27.2283 81.0236 22.4755 83.1351 17.7765 86.6593C8.33831 93.7379 -0.788648 106.452 0.145312 128.867L1.98518 128.79C1.07767 107.01 9.90496 94.8648 18.8814 88.1325C23.3897 84.7512 27.9593 82.7194 31.4038 81.5336C33.1247 80.9412 34.5608 80.5612 35.5623 80.3301C36.0629 80.2146 36.4545 80.1364 36.7183 80.0874C36.8502 80.0629 36.9501 80.0457 37.0157 80.0349C37.0485 80.0295 37.0727 80.0256 37.088 80.0232C37.0957 80.022 37.1011 80.0212 37.1043 80.0207C37.1059 80.0205 37.1069 80.0203 37.1074 80.0203C37.1076 80.0202 37.1075 80.0203 37.1077 80.0202C37.1074 80.0203 37.1071 80.0203 36.9737 79.1093ZM111.553 0.847238C92.74 0.847238 78.5697 5.72777 67.9132 13.0952C57.2642 20.4575 50.1793 30.2646 45.4668 40.0388C40.7556 49.8101 38.4046 59.5698 37.23 66.8786C36.6423 70.5352 36.3481 73.5844 36.2008 75.7228C36.1272 76.7921 36.0902 77.6342 36.0717 78.2111C36.0624 78.4996 36.0577 78.7219 36.0554 78.8731C36.0542 78.9487 36.0536 79.0066 36.0533 79.0462C36.0532 79.066 36.0531 79.0812 36.053 79.0917C36.053 79.097 36.053 79.1011 36.053 79.104C36.053 79.1055 36.053 79.1068 36.053 79.1075C36.053 79.1086 36.053 79.1093 36.9737 79.1093C37.8945 79.1093 37.8945 79.1094 37.8945 79.1093C37.8945 79.1088 37.8945 79.1084 37.8945 79.1075C37.8945 79.1057 37.8945 79.1028 37.8945 79.0987C37.8945 79.0905 37.8946 79.0777 37.8947 79.0603C37.895 79.0255 37.8955 78.9725 37.8966 78.9017C37.8988 78.7603 37.9033 78.5483 37.9122 78.2703C37.9301 77.7143 37.9659 76.8947 38.0379 75.8493C38.182 73.7581 38.4705 70.7649 39.0481 67.1708C40.2041 59.9781 42.5143 50.4025 47.1255 40.8385C51.7353 31.2774 58.634 21.7491 68.9604 14.6099C79.2794 7.47583 93.0762 2.6887 111.553 2.6887V0.847238ZM109.709 97.5245H36.051V99.366H109.709V97.5245ZM101.422 127.865C100.97 118.372 103.229 111.159 105.588 106.33C106.768 103.914 107.974 102.093 108.879 100.881C109.331 100.275 109.709 99.8224 109.969 99.5242C110.1 99.3752 110.201 99.2648 110.268 99.1934C110.301 99.1577 110.326 99.1317 110.342 99.1155C110.35 99.1074 110.355 99.1018 110.358 99.0986C110.36 99.097 110.361 99.096 110.361 99.0956C110.361 99.0954 110.361 99.0954 110.361 99.0955C110.361 99.0956 110.361 99.0958 110.361 99.0958C110.361 99.096 110.36 99.0963 109.709 98.4453C109.058 97.7942 109.058 97.7946 109.058 97.795C109.057 97.7951 109.057 97.7956 109.057 97.7959C109.056 97.7967 109.055 97.7976 109.054 97.7986C109.052 97.8007 109.049 97.8034 109.046 97.8068C109.039 97.8134 109.03 97.8226 109.019 97.8343C108.997 97.8576 108.965 97.8909 108.924 97.9341C108.843 98.0204 108.728 98.1466 108.583 98.3122C108.293 98.6434 107.886 99.1328 107.404 99.7788C106.439 101.07 105.17 102.99 103.933 105.522C101.458 110.591 99.1138 118.11 99.5825 127.952L101.422 127.865ZM147.407 169.343C131.568 170.248 120.331 164.601 112.924 156.409C105.492 148.189 101.874 137.353 101.422 127.865L99.5825 127.952C100.051 137.8 103.799 149.061 111.558 157.644C119.344 166.256 131.125 172.118 147.512 171.181L147.407 169.343ZM184.289 141.72C183.381 141.563 183.381 141.563 183.381 141.562C183.381 141.562 183.381 141.562 183.381 141.562C183.381 141.562 183.381 141.563 183.381 141.564C183.381 141.566 183.38 141.569 183.379 141.574C183.377 141.584 183.374 141.601 183.37 141.623C183.362 141.668 183.348 141.737 183.328 141.829C183.289 142.013 183.227 142.288 183.136 142.641C182.954 143.348 182.658 144.368 182.202 145.601C181.29 148.07 179.747 151.382 177.222 154.748C172.193 161.454 163.228 168.439 147.407 169.343L147.512 171.181C163.916 170.244 173.366 162.958 178.695 155.853C181.35 152.314 182.971 148.835 183.929 146.239C184.409 144.941 184.724 143.86 184.92 143.1C185.017 142.72 185.086 142.419 185.13 142.211C185.152 142.107 185.168 142.026 185.179 141.97C185.184 141.941 185.188 141.919 185.191 141.904C185.192 141.896 185.194 141.89 185.194 141.885C185.195 141.883 185.195 141.881 185.195 141.879C185.196 141.879 185.196 141.878 185.196 141.877C185.196 141.877 185.196 141.876 184.289 141.72ZM201.764 162.711C200.608 157.079 196.297 151.623 192.409 147.647C190.447 145.641 188.557 143.977 187.157 142.814C186.457 142.232 185.879 141.775 185.474 141.462C185.271 141.305 185.112 141.185 185.003 141.103C184.948 141.062 184.906 141.031 184.877 141.009C184.862 140.998 184.851 140.99 184.843 140.985C184.84 140.982 184.836 140.98 184.834 140.978C184.833 140.977 184.832 140.977 184.832 140.976C184.831 140.976 184.831 140.976 184.831 140.976C184.831 140.975 184.831 140.975 184.289 141.72C183.747 142.464 183.747 142.464 183.747 142.464C183.747 142.464 183.747 142.464 183.747 142.464C183.747 142.464 183.747 142.465 183.748 142.465C183.749 142.466 183.752 142.468 183.755 142.47C183.761 142.474 183.77 142.481 183.783 142.491C183.809 142.51 183.847 142.538 183.899 142.577C184.001 142.653 184.153 142.768 184.348 142.919C184.737 143.22 185.299 143.664 185.98 144.23C187.345 145.364 189.186 146.985 191.092 148.935C194.941 152.869 198.917 158.002 199.96 163.082L201.764 162.711ZM193.496 186.835C194.242 187.376 194.242 187.375 194.242 187.375C194.242 187.375 194.242 187.375 194.243 187.374C194.243 187.374 194.244 187.373 194.244 187.372C194.246 187.37 194.248 187.367 194.251 187.363C194.256 187.356 194.263 187.345 194.273 187.331C194.293 187.304 194.321 187.264 194.357 187.212C194.43 187.109 194.535 186.957 194.666 186.761C194.93 186.369 195.303 185.801 195.741 185.085C196.618 183.656 197.765 181.636 198.842 179.271C200.98 174.583 202.926 168.372 201.764 162.711L199.96 163.082C201 168.15 199.263 173.909 197.167 178.508C196.128 180.787 195.02 182.74 194.172 184.122C193.748 184.813 193.39 185.36 193.139 185.733C193.014 185.919 192.915 186.061 192.848 186.156C192.815 186.204 192.79 186.24 192.773 186.263C192.765 186.275 192.759 186.283 192.755 186.289C192.753 186.291 192.752 186.293 192.751 186.294C192.751 186.295 192.75 186.295 192.75 186.295C192.75 186.295 192.75 186.295 192.75 186.295C192.75 186.295 192.75 186.295 193.496 186.835ZM138.423 190.503C156.777 187.031 170.524 186.346 179.667 186.525C184.239 186.614 187.659 186.92 189.93 187.201C191.065 187.342 191.913 187.476 192.473 187.575C192.753 187.624 192.961 187.665 193.098 187.692C193.166 187.706 193.216 187.717 193.248 187.724C193.264 187.727 193.276 187.73 193.283 187.731C193.287 187.732 193.289 187.733 193.29 187.733C193.291 187.733 193.291 187.733 193.292 187.733C193.292 187.733 193.291 187.733 193.291 187.733C193.291 187.733 193.291 187.733 193.496 186.835C193.701 185.938 193.7 185.938 193.7 185.938C193.7 185.938 193.699 185.937 193.699 185.937C193.698 185.937 193.696 185.937 193.695 185.936C193.692 185.936 193.687 185.935 193.682 185.933C193.671 185.931 193.656 185.928 193.636 185.923C193.596 185.915 193.538 185.903 193.463 185.887C193.311 185.857 193.088 185.814 192.792 185.762C192.202 185.658 191.323 185.518 190.156 185.374C187.823 185.084 184.339 184.774 179.703 184.683C170.431 184.502 156.557 185.198 138.081 188.693L138.423 190.503ZM94.9778 231.951C95.8836 232.116 95.8835 232.116 95.8835 232.117C95.8835 232.117 95.8835 232.117 95.8836 232.116C95.8837 232.116 95.8838 232.115 95.8841 232.113C95.8847 232.11 95.8857 232.105 95.8871 232.097C95.8899 232.083 95.8943 232.06 95.9005 232.029C95.9129 231.966 95.9322 231.871 95.9592 231.746C96.0132 231.495 96.098 231.122 96.2192 230.643C96.4618 229.684 96.8503 228.299 97.4308 226.613C98.5926 223.239 100.52 218.667 103.58 213.883C109.692 204.327 120.313 193.929 138.423 190.503L138.081 188.693C119.362 192.235 108.346 203.013 102.028 212.891C98.873 217.825 96.8874 222.535 95.6897 226.014C95.0906 227.754 94.6878 229.188 94.434 230.191C94.3071 230.693 94.2174 231.087 94.159 231.358C94.1299 231.494 94.1085 231.598 94.0942 231.67C94.0871 231.706 94.0817 231.734 94.078 231.754C94.0762 231.763 94.0748 231.771 94.0738 231.776C94.0732 231.779 94.0728 231.781 94.0725 231.783C94.0724 231.784 94.0722 231.785 94.0722 231.785C94.072 231.786 94.0719 231.786 94.9778 231.951ZM83.0083 208.933C82.1161 209.161 82.1162 209.161 82.1163 209.161C82.1163 209.161 82.1164 209.162 82.1165 209.162C82.1167 209.163 82.1169 209.164 82.1172 209.165C82.1179 209.167 82.1187 209.171 82.1199 209.175C82.1221 209.184 82.1254 209.197 82.1298 209.213C82.1384 209.246 82.1512 209.295 82.168 209.358C82.2017 209.484 82.2518 209.668 82.318 209.904C82.4506 210.375 82.648 211.054 82.9091 211.888C83.4309 213.555 84.2086 215.847 85.2323 218.346C87.2623 223.303 90.3235 229.242 94.3854 232.656L95.5702 231.246C91.8757 228.141 88.9522 222.571 86.9365 217.649C85.9373 215.209 85.1769 212.968 84.6664 211.338C84.4113 210.523 84.219 209.862 84.0908 209.406C84.0268 209.177 83.9787 209.001 83.9469 208.882C83.931 208.822 83.9192 208.777 83.9114 208.748C83.9075 208.733 83.9047 208.722 83.9028 208.715C83.9019 208.711 83.9012 208.709 83.9008 208.707C83.9006 208.706 83.9005 208.706 83.9004 208.705C83.9004 208.705 83.9004 208.705 83.9003 208.705C83.9003 208.705 83.9004 208.705 83.0083 208.933ZM82.0875 115.018V208.933H83.929V115.018H82.0875ZM63.6729 115.939H83.0083V114.098H63.6729V115.939ZM64.5937 151.848V115.018H62.7522V151.848H64.5937ZM36.051 152.768H63.6729V150.927H36.051V152.768ZM17.6364 124.226C17.6364 134.65 22.1476 141.779 26.653 146.284C28.9014 148.532 31.1486 150.129 32.8358 151.165C33.6801 151.683 34.3863 152.063 34.8851 152.314C35.1346 152.44 35.3324 152.533 35.47 152.597C35.5388 152.628 35.5926 152.652 35.6302 152.669C35.649 152.677 35.6638 152.683 35.6745 152.688C35.6798 152.69 35.6841 152.692 35.6873 152.693C35.6889 152.694 35.6902 152.695 35.6913 152.695C35.6918 152.695 35.6924 152.696 35.6927 152.696C35.6933 152.696 35.6937 152.696 36.051 151.848C36.4083 150.999 36.4086 150.999 36.4089 150.999C36.4089 150.999 36.4091 150.999 36.4091 150.999C36.4091 150.999 36.4089 150.999 36.4084 150.999C36.4074 150.999 36.4053 150.998 36.4022 150.996C36.396 150.994 36.3857 150.989 36.3714 150.983C36.3429 150.97 36.2984 150.951 36.2391 150.923C36.1204 150.869 35.9424 150.785 35.7135 150.669C35.2557 150.439 34.5951 150.084 33.7994 149.596C32.2065 148.618 30.0803 147.107 27.9551 144.982C23.7137 140.74 19.4779 134.058 19.4779 124.226H17.6364ZM36.051 98.4453C35.7737 97.5673 35.7732 97.5674 35.7726 97.5676C35.7723 97.5677 35.7717 97.5679 35.7711 97.5681C35.77 97.5685 35.7686 97.5689 35.7669 97.5694C35.7636 97.5705 35.7592 97.5719 35.7537 97.5737C35.7429 97.5772 35.7278 97.5822 35.7088 97.5885C35.6706 97.6013 35.6163 97.6198 35.547 97.6444C35.4083 97.6936 35.2092 97.767 34.9585 97.8669C34.4571 98.0667 33.7478 98.373 32.9001 98.8044C31.2061 99.6663 28.9491 101.032 26.6901 103.054C22.1556 107.111 17.6364 113.794 17.6364 124.226H19.4779C19.4779 114.403 23.7056 108.195 27.918 104.426C30.0326 102.534 32.149 101.253 33.7351 100.446C34.5274 100.043 35.1849 99.759 35.6402 99.5775C35.8678 99.4868 36.0445 99.4218 36.1621 99.3801C36.2209 99.3593 36.2648 99.3443 36.2929 99.3349C36.3069 99.3302 36.317 99.3269 36.3229 99.325C36.3259 99.324 36.3278 99.3234 36.3287 99.3231C36.3292 99.323 36.3294 99.3229 36.3293 99.3229C36.3293 99.3229 36.329 99.323 36.329 99.323C36.3287 99.3231 36.3283 99.3232 36.051 98.4453ZM228.482 151.847C243.737 151.847 256.104 139.48 256.104 124.225H254.263C254.263 138.463 242.72 150.005 228.482 150.005V151.847ZM201.216 128.671C203.343 141.812 214.74 151.847 228.482 151.847V150.005C215.658 150.005 205.019 140.641 203.034 128.377L201.216 128.671ZM218.354 140.798C210.804 140.798 204.5 135.451 203.027 128.337L201.224 128.711C202.871 136.662 209.913 142.639 218.354 142.639V140.798ZM234.006 125.145C234.006 133.79 226.998 140.798 218.354 140.798V142.639C228.015 142.639 235.848 134.807 235.848 125.145H234.006ZM218.354 109.493C226.998 109.493 234.006 116.501 234.006 125.145H235.848C235.848 115.484 228.015 107.652 218.354 107.652V109.493ZM202.706 124.755C202.913 116.291 209.84 109.493 218.354 109.493V107.652C208.838 107.652 201.097 115.249 200.865 124.709L202.706 124.755ZM200.86 124.225C200.86 124.4 200.862 124.575 200.865 124.749L202.706 124.715C202.703 124.552 202.702 124.389 202.702 124.225H200.86ZM228.482 96.6029C213.227 96.6029 200.86 108.97 200.86 124.225H202.702C202.702 109.987 214.244 98.4443 228.482 98.4443V96.6029ZM256.104 124.225C256.104 108.97 243.737 96.6029 228.482 96.6029V98.4443C242.72 98.4443 254.263 109.987 254.263 124.225H256.104ZM167.716 126.066C167.716 140.304 156.174 151.847 141.935 151.847V153.688C157.191 153.688 169.557 141.321 169.557 126.066H167.716ZM141.935 100.286C156.174 100.286 167.716 111.828 167.716 126.066H169.557C169.557 110.811 157.191 98.4444 141.935 98.4444V100.286ZM116.487 121.917C118.471 109.652 129.11 100.286 141.935 100.286V98.4444C128.192 98.4444 116.795 108.48 114.669 121.623L116.487 121.917ZM131.807 107.652C123.365 107.652 116.322 113.63 114.676 121.584L116.48 121.957C117.952 114.841 124.256 109.493 131.807 109.493V107.652ZM149.301 125.145C149.301 115.484 141.469 107.652 131.807 107.652V109.493C140.452 109.493 147.46 116.501 147.46 125.145H149.301ZM131.807 142.639C141.469 142.639 149.301 134.807 149.301 125.145H147.46C147.46 133.79 140.452 140.798 131.807 140.798V142.639ZM114.319 125.577C114.548 135.039 122.29 142.639 131.807 142.639V140.798C123.292 140.798 116.364 133.998 116.16 125.532L114.319 125.577ZM116.155 126.066C116.155 125.901 116.157 125.736 116.16 125.572L114.318 125.537C114.315 125.713 114.314 125.889 114.314 126.066H116.155ZM141.935 151.847C127.697 151.847 116.155 140.304 116.155 126.066H114.314C114.314 141.321 126.68 153.688 141.935 153.688V151.847ZM199.943 223.663H131.809V225.505H199.943V223.663ZM166.797 247.602C179.536 247.602 188.052 241.929 193.364 236.263C196.015 233.435 197.87 230.609 199.063 228.488C199.659 227.427 200.092 226.54 200.377 225.915C200.519 225.602 200.625 225.355 200.695 225.183C200.731 225.098 200.757 225.031 200.776 224.984C200.785 224.961 200.792 224.943 200.797 224.93C200.799 224.924 200.801 224.919 200.803 224.915C200.803 224.913 200.804 224.911 200.804 224.91C200.805 224.909 200.805 224.909 200.805 224.908C200.805 224.908 200.805 224.907 199.943 224.584C199.081 224.261 199.081 224.26 199.081 224.26C199.081 224.26 199.081 224.26 199.081 224.26C199.081 224.26 199.081 224.261 199.081 224.261C199.08 224.263 199.079 224.266 199.078 224.27C199.074 224.278 199.069 224.292 199.062 224.311C199.047 224.348 199.024 224.405 198.993 224.481C198.93 224.633 198.833 224.861 198.701 225.152C198.435 225.735 198.026 226.575 197.458 227.585C196.32 229.608 194.549 232.307 192.021 235.003C186.975 240.385 178.918 245.761 166.797 245.761V247.602ZM131.809 224.584C130.972 224.968 130.972 224.968 130.973 224.969C130.973 224.969 130.973 224.97 130.973 224.97C130.974 224.971 130.975 224.973 130.975 224.975C130.977 224.979 130.98 224.984 130.982 224.99C130.988 225.003 130.997 225.021 131.008 225.044C131.03 225.09 131.062 225.156 131.104 225.241C131.189 225.412 131.314 225.659 131.482 225.97C131.818 226.594 132.323 227.478 133.007 228.536C134.373 230.652 136.458 233.471 139.336 236.291C145.099 241.936 154.066 247.602 166.797 247.602V245.761C154.669 245.761 146.141 240.379 140.625 234.975C137.864 232.271 135.863 229.565 134.554 227.537C133.899 226.524 133.419 225.682 133.104 225.097C132.946 224.804 132.83 224.576 132.754 224.423C132.716 224.347 132.688 224.289 132.67 224.251C132.661 224.233 132.655 224.219 132.651 224.21C132.649 224.206 132.647 224.203 132.647 224.201C132.646 224.201 132.646 224.2 132.646 224.2C132.646 224.2 132.646 224.2 132.646 224.2C132.646 224.2 132.646 224.2 131.809 224.584Z" fill="#01A6FF"/>
<path d="M386.129 220.712C383.158 220.712 380.806 219.846 379.074 218.113C377.465 216.256 376.784 213.842 377.031 210.872L385.943 99.1021C386.067 96.1315 386.995 93.8416 388.728 92.2325C390.585 90.6235 392.937 89.8189 395.783 89.8189H431.802C451.483 89.8189 466.769 95.1413 477.661 105.786C488.553 116.431 494 131.222 494 150.16C494 164.889 491.338 177.514 486.016 188.035C480.694 198.556 472.896 206.663 462.622 212.357C452.473 217.927 440.219 220.712 425.861 220.712H386.129ZM424.561 204.745C441.147 204.745 453.587 200.103 461.88 190.82C470.297 181.537 474.505 167.922 474.505 149.974C474.505 135.368 470.792 124.352 463.365 116.926C455.938 109.499 444.799 105.786 429.946 105.786H404.51L396.712 204.745H424.561ZM559.928 222.197C540.124 222.197 524.59 217.741 513.326 208.83C510.232 206.602 508.684 203.817 508.684 200.475C508.684 198.247 509.303 196.39 510.541 194.905C511.903 193.419 513.574 192.677 515.554 192.677C517.287 192.677 518.958 193.234 520.567 194.348C531.459 202.517 544.765 206.602 560.485 206.602C570.387 206.602 577.937 204.869 583.136 201.403C588.458 197.813 591.119 192.801 591.119 186.364C591.119 182.28 589.758 178.938 587.035 176.338C584.435 173.739 581.155 171.697 577.194 170.211C573.234 168.602 567.726 166.746 560.67 164.642C551.511 161.918 544.023 159.319 538.205 156.844C532.511 154.244 527.622 150.531 523.538 145.704C519.577 140.753 517.596 134.316 517.596 126.395C517.596 118.721 519.639 112.037 523.723 106.343C527.932 100.526 533.811 96.0696 541.361 92.9752C548.912 89.8808 557.762 88.3336 567.911 88.3336C576.947 88.3336 585.364 89.6332 593.162 92.2325C601.083 94.8318 607.581 98.3595 612.656 102.815C614.761 104.548 615.813 106.776 615.813 109.499C615.813 111.727 615.07 113.646 613.585 115.255C612.223 116.864 610.49 117.669 608.386 117.669C606.653 117.669 604.673 116.926 602.445 115.441C598.113 111.975 592.914 109.19 586.849 107.086C580.784 104.981 574.348 103.929 567.54 103.929C557.762 103.929 550.211 105.786 544.889 109.499C539.567 113.213 536.905 118.411 536.905 125.095C536.905 129.551 538.329 133.264 541.176 136.235C544.023 139.082 547.55 141.372 551.759 143.104C555.967 144.714 561.722 146.57 569.025 148.674C577.937 151.274 585.116 153.811 590.562 156.287C596.008 158.638 600.65 162.104 604.487 166.684C608.448 171.264 610.428 177.267 610.428 184.693C610.428 196.328 605.911 205.488 596.875 212.171C587.963 218.855 575.647 222.197 559.928 222.197ZM803.005 94.6462C803.748 92.6658 804.924 91.1804 806.533 90.1902C808.266 89.2 810.061 88.7049 811.917 88.7049C814.145 88.7049 816.064 89.3857 817.673 90.7472C819.282 92.1088 820.087 93.9654 820.087 96.3172C820.087 97.6787 819.715 99.2259 818.973 100.959L769.772 215.513C768.905 217.618 767.544 219.227 765.687 220.341C763.83 221.455 761.85 222.012 759.746 222.012C757.642 222.012 755.661 221.393 753.804 220.155C752.072 218.917 750.896 217.184 750.277 214.956L724.284 119.711L683.066 215.513C682.2 217.618 680.839 219.227 678.982 220.341C677.125 221.455 675.145 222.012 673.041 222.012C670.936 222.012 668.956 221.393 667.099 220.155C665.367 218.917 664.191 217.184 663.572 214.956L632.38 100.773C632.133 100.03 632.009 98.9783 632.009 97.6168C632.009 94.8937 632.937 92.7276 634.794 91.1186C636.774 89.5095 639.064 88.7049 641.663 88.7049C643.644 88.7049 645.377 89.2619 646.862 90.3759C648.471 91.3661 649.523 92.9133 650.018 95.0175L675.64 193.605L717.6 95.3888C718.466 93.2846 719.766 91.6755 721.499 90.5616C723.232 89.3238 725.027 88.7049 726.883 88.7049C728.864 88.7049 730.658 89.3238 732.267 90.5616C733.877 91.7993 734.929 93.4703 735.424 95.5745L761.231 194.162L803.005 94.6462ZM945.868 88.8906C948.715 88.8906 950.943 89.757 952.552 91.4899C954.161 93.2227 954.904 95.5745 954.78 98.5451L945.868 212.357C945.621 215.204 944.568 217.494 942.712 219.227C940.979 220.836 938.689 221.64 935.842 221.64C932.995 221.64 930.706 220.774 928.973 219.041C927.364 217.308 926.683 214.956 926.93 211.986L930.829 162.042H857.863L853.964 212.357C853.717 215.204 852.665 217.494 850.808 219.227C849.075 220.836 846.785 221.64 843.939 221.64C841.092 221.64 838.802 220.774 837.069 219.041C835.46 217.308 834.779 214.956 835.027 211.986L843.939 98.1738C844.062 95.3269 845.053 93.099 846.909 91.4899C848.766 89.757 851.118 88.8906 853.964 88.8906C856.811 88.8906 859.039 89.757 860.648 91.4899C862.257 93.2227 863 95.5745 862.876 98.5451L859.163 146.446H932.129L935.842 98.1738C935.966 95.3269 936.956 93.099 938.813 91.4899C940.67 89.757 943.021 88.8906 945.868 88.8906Z" fill="#FF9000"/>
<circle cx="325.912" cy="148.752" r="15.472" fill="#FF9000"/>
</svg>
