<svg width="968" height="288" viewBox="0 0 968 288" fill="none" xmlns="http://www.w3.org/2000/svg">
<path fill-rule="evenodd" clip-rule="evenodd" d="M111.553 1.00002L242.297 1C242.297 1 242.297 32.3044 207.309 47.0365H111.553C111.553 47.0365 82.0895 51.6397 83.0102 79.2621H144.699C186.38 79.2621 185.354 109.513 185.018 119.43V119.431C184.953 121.343 184.914 122.499 185.211 122.536C185.508 122.573 185.613 121.477 185.793 119.612C186.729 109.889 189.679 79.2621 232.169 79.2621C232.169 79.2621 271.76 79.2621 271.76 122.536C271.76 165.811 222.041 168.573 222.041 168.573C222.961 185.146 212.833 189.75 212.833 189.75C212.833 189.75 230.327 195.274 234.931 217.372C239.534 239.469 228.486 280.902 159.431 281.823C81.1688 282.866 65.5164 211.847 65.5164 211.847V168.573H49.864V281.823H31.4493V168.573C31.4493 168.573 2.25347 156.578 1.06524 128.061C-0.776218 83.8657 36.9737 78.3414 36.9737 78.3414C36.9737 78.3414 36.9737 1.00002 111.553 1.00002ZM36.051 97.6773H109.709C109.709 97.6773 99.5814 107.805 100.502 127.141C101.423 146.476 115.234 171.336 147.459 169.494C179.685 167.653 184.289 140.952 184.289 140.952C184.289 140.952 198.663 151.416 200.862 162.128C203.064 172.858 193.496 186.067 193.496 186.067C193.496 186.067 175.081 181.863 138.252 188.83C101.423 195.797 94.9778 231.183 94.9778 231.183C87.2215 224.664 83.0083 208.165 83.0083 208.165V114.25H63.6729V151.08H36.051C36.051 151.08 18.5572 143.714 18.5572 123.458C18.5572 103.202 36.051 97.6773 36.051 97.6773ZM255.183 123.457C255.183 138.203 243.229 150.158 228.482 150.158C215.199 150.158 204.181 140.459 202.125 127.756C203.685 135.289 210.358 140.951 218.354 140.951C227.507 140.951 234.927 133.531 234.927 124.377C234.927 115.224 227.507 107.804 218.354 107.804C209.339 107.804 202.005 115.002 201.786 123.964C201.782 123.795 201.781 123.626 201.781 123.457C201.781 108.71 213.735 96.7557 228.482 96.7557C243.229 96.7557 255.183 108.71 255.183 123.457ZM141.935 152C156.682 152 168.637 140.045 168.637 125.298C168.637 110.552 156.682 98.5972 141.935 98.5972C128.651 98.5972 117.633 108.298 115.578 121.002C117.137 113.468 123.811 107.804 131.807 107.804C140.96 107.804 148.38 115.224 148.38 124.377C148.38 133.531 140.96 140.951 131.807 140.951C122.791 140.951 115.456 133.751 115.239 124.786C115.236 124.957 115.234 125.127 115.234 125.298C115.234 140.045 127.189 152 141.935 152ZM131.809 223.816H199.943C199.943 223.816 191.657 245.914 166.797 245.914C141.937 245.914 131.809 223.816 131.809 223.816Z" fill="white"/>
<path d="M242.297 1H243.217V0.0792693L242.297 0.0792695V1ZM111.553 1.00002V1.92075V1.00002ZM207.309 47.0365V47.9573H207.495L207.666 47.8851L207.309 47.0365ZM111.553 47.0365V46.1158H111.481L111.411 46.1268L111.553 47.0365ZM83.0102 79.2621L82.09 79.2928L82.1197 80.1828H83.0102V79.2621ZM185.018 119.43L184.098 119.399L184.097 119.415V119.43H185.018ZM185.018 119.431L185.938 119.462L185.938 119.446V119.431H185.018ZM185.211 122.536L185.097 123.45H185.097L185.211 122.536ZM185.793 119.612L184.876 119.524L185.793 119.612ZM222.041 168.573L221.989 167.654L221.07 167.705L221.121 168.624L222.041 168.573ZM212.833 189.75L212.452 188.912L210.267 189.905L212.556 190.628L212.833 189.75ZM159.431 281.823L159.443 282.743L159.431 281.823ZM65.5164 211.847H64.5956V211.948L64.6172 212.045L65.5164 211.847ZM65.5164 168.573H66.4371V167.652H65.5164V168.573ZM49.864 168.573V167.652H48.9432V168.573H49.864ZM49.864 281.823V282.743H50.7847V281.823H49.864ZM31.4493 281.823H30.5286V282.743H31.4493V281.823ZM31.4493 168.573H32.3701V167.956L31.7992 167.721L31.4493 168.573ZM1.06524 128.061L1.98518 128.022L1.06524 128.061ZM36.9737 78.3414L37.1071 79.2524L37.8945 79.1372V78.3414H36.9737ZM109.709 97.6773L110.36 98.3284L111.932 96.7566H109.709V97.6773ZM36.051 97.6773V96.7566H35.9091L35.7737 96.7993L36.051 97.6773ZM100.502 127.141L101.422 127.097L100.502 127.141ZM147.459 169.494L147.407 168.575L147.459 169.494ZM184.289 140.952L184.831 140.207L183.633 139.335L183.381 140.795L184.289 140.952ZM200.862 162.128L201.764 161.943L200.862 162.128ZM193.496 186.067L193.291 186.965L193.884 187.101L194.242 186.608L193.496 186.067ZM138.252 188.83L138.081 187.925L138.252 188.83ZM94.9778 231.183L94.3854 231.888L95.5994 232.908L95.8836 231.348L94.9778 231.183ZM83.0083 208.165H82.0875V208.281L82.1161 208.393L83.0083 208.165ZM83.0083 114.25H83.929V113.33H83.0083V114.25ZM63.6729 114.25V113.33H62.7522V114.25H63.6729ZM63.6729 151.08V152H64.5937V151.08H63.6729ZM36.051 151.08L35.6937 151.928L35.8651 152H36.051V151.08ZM202.125 127.756L203.027 127.569L201.216 127.903L202.125 127.756ZM201.786 123.964L200.865 123.981L202.706 123.987L201.786 123.964ZM115.578 121.002L114.669 120.855L116.48 121.189L115.578 121.002ZM115.239 124.786L116.16 124.764L114.318 124.769L115.239 124.786ZM199.943 223.816L200.805 224.139L201.272 222.895H199.943V223.816ZM131.809 223.816V222.895H130.374L130.972 224.2L131.809 223.816ZM242.297 0.0792695L111.553 0.0792933V1.92075L242.297 1.92073V0.0792695ZM207.666 47.8851C225.4 40.4181 234.305 28.7253 238.762 18.8732C240.987 13.9553 242.1 9.50451 242.657 6.27822C242.936 4.66453 243.076 3.35535 243.146 2.44479C243.181 1.98944 243.199 1.63357 243.208 1.38891C243.213 1.26657 243.215 1.17202 243.216 1.10672C243.217 1.07407 243.217 1.04873 243.217 1.03088C243.217 1.02196 243.217 1.01491 243.217 1.00975C243.217 1.00718 243.217 1.00507 243.217 1.00345C243.217 1.00263 243.217 1.00177 243.217 1.00136C243.217 1.00062 243.217 1 242.297 1C241.376 1 241.376 0.999616 241.376 0.999351C241.376 0.999422 241.376 0.999275 241.376 0.999414C241.376 0.999693 241.376 1.00044 241.376 1.00167C241.376 1.00411 241.376 1.00843 241.376 1.01461C241.376 1.02697 241.375 1.04675 241.375 1.07378C241.374 1.12784 241.372 1.21087 241.368 1.32141C241.36 1.54251 241.343 1.87357 241.31 2.30298C241.244 3.16193 241.111 4.41349 240.843 5.96478C240.307 9.06844 239.233 13.3645 237.084 18.1142C232.794 27.5973 224.206 38.9228 206.952 46.188L207.666 47.8851ZM111.553 47.9573H207.309V46.1158H111.553V47.9573ZM83.9305 79.2314C83.4837 65.8287 90.3765 58.0464 97.4298 53.5682C100.969 51.3213 104.544 49.9125 107.24 49.0658C108.586 48.643 109.708 48.3617 110.49 48.1868C110.881 48.0993 111.186 48.0385 111.392 47.9999C111.495 47.9806 111.573 47.9668 111.624 47.9581C111.65 47.9537 111.668 47.9506 111.68 47.9486C111.686 47.9476 111.69 47.9469 111.693 47.9466C111.694 47.9464 111.695 47.9462 111.695 47.9462C111.695 47.9461 111.695 47.9462 111.696 47.9461C111.695 47.9462 111.695 47.9462 111.553 47.0365C111.411 46.1268 111.41 46.1269 111.41 46.127C111.409 46.1271 111.409 46.1272 111.408 46.1273C111.406 46.1275 111.404 46.1278 111.402 46.1282C111.397 46.129 111.391 46.13 111.383 46.1313C111.366 46.134 111.343 46.1379 111.313 46.1431C111.252 46.1534 111.165 46.1689 111.052 46.19C110.827 46.2323 110.501 46.2974 110.088 46.3897C109.262 46.5744 108.089 46.8686 106.688 47.309C103.888 48.1886 100.155 49.657 96.4428 52.0136C88.9945 56.7426 81.616 65.0731 82.09 79.2928L83.9305 79.2314ZM144.699 78.3414H83.0102V80.1828H144.699V78.3414ZM185.938 119.461C186.106 114.517 186.47 104.231 181.419 95.1785C176.31 86.023 165.796 78.3414 144.699 78.3414V80.1828C165.283 80.1828 175.096 87.6266 179.811 96.0758C184.583 104.629 184.266 114.426 184.098 119.399L185.938 119.461ZM185.938 119.431V119.43H184.097V119.431H185.938ZM185.326 121.623C185.619 121.659 185.794 121.836 185.869 121.942C185.932 122.032 185.944 122.097 185.938 122.073C185.927 122.032 185.908 121.908 185.899 121.653C185.881 121.161 185.905 120.433 185.938 119.462L184.098 119.399C184.066 120.34 184.038 121.147 184.058 121.72C184.069 121.999 184.091 122.29 184.155 122.535C184.186 122.656 184.243 122.832 184.361 122.999C184.49 123.183 184.73 123.404 185.097 123.45L185.326 121.623ZM184.876 119.524C184.785 120.473 184.717 121.172 184.638 121.633C184.619 121.744 184.601 121.83 184.585 121.896C184.577 121.928 184.57 121.953 184.564 121.97C184.559 121.988 184.555 121.995 184.556 121.994C184.556 121.994 184.563 121.978 184.579 121.953C184.594 121.928 184.626 121.882 184.679 121.831C184.804 121.712 185.034 121.586 185.326 121.623L185.097 123.45C185.463 123.496 185.761 123.344 185.949 123.165C186.11 123.011 186.199 122.834 186.248 122.721C186.348 122.488 186.409 122.205 186.453 121.943C186.547 121.399 186.621 120.617 186.709 119.7L184.876 119.524ZM232.169 78.3414C210.668 78.3414 199.005 86.1102 192.642 95.2654C186.327 104.354 185.345 114.662 184.876 119.524L186.709 119.7C187.178 114.839 188.139 104.972 194.155 96.3163C200.124 87.7274 211.18 80.1828 232.169 80.1828V78.3414ZM272.681 122.536C272.681 111.573 270.171 103.288 266.36 97.039C262.55 90.792 257.47 86.631 252.406 83.8635C247.347 81.0987 242.298 79.7207 238.52 79.0324C236.629 78.688 235.051 78.5153 233.941 78.4287C233.387 78.3854 232.949 78.3635 232.647 78.3526C232.496 78.3471 232.379 78.3443 232.298 78.3428C232.258 78.3421 232.227 78.3418 232.205 78.3416C232.194 78.3415 232.186 78.3414 232.18 78.3414C232.177 78.3414 232.174 78.3414 232.172 78.3414C232.171 78.3414 232.171 78.3414 232.17 78.3414C232.169 78.3414 232.169 78.3414 232.169 79.2621C232.169 80.1828 232.168 80.1828 232.168 80.1828C232.168 80.1828 232.168 80.1828 232.168 80.1828C232.169 80.1828 232.17 80.1828 232.172 80.1829C232.175 80.1829 232.181 80.1829 232.189 80.183C232.206 80.1831 232.231 80.1834 232.266 80.184C232.335 80.1852 232.441 80.1877 232.58 80.1928C232.858 80.2029 233.27 80.2234 233.798 80.2646C234.854 80.347 236.369 80.5124 238.19 80.8441C241.835 81.5082 246.684 82.8348 251.523 85.4793C256.357 88.1211 261.175 92.074 264.788 97.9979C268.4 103.92 270.839 111.863 270.839 122.536H272.681ZM222.041 168.573C222.092 169.492 222.092 169.492 222.093 169.492C222.093 169.492 222.094 169.492 222.095 169.492C222.098 169.492 222.1 169.492 222.104 169.492C222.111 169.491 222.121 169.491 222.134 169.49C222.16 169.488 222.198 169.486 222.247 169.482C222.346 169.475 222.49 169.465 222.677 169.449C223.05 169.417 223.594 169.365 224.285 169.284C225.665 169.122 227.632 168.841 229.99 168.368C234.703 167.423 240.999 165.704 247.306 162.609C259.946 156.406 272.681 144.628 272.681 122.536H270.839C270.839 143.719 258.714 154.959 246.495 160.956C240.372 163.961 234.238 165.638 229.628 166.562C227.325 167.024 225.408 167.298 224.069 167.455C223.4 167.534 222.876 167.584 222.521 167.614C222.344 167.629 222.209 167.639 222.119 167.645C222.074 167.648 222.041 167.65 222.019 167.652C222.008 167.653 222 167.653 221.995 167.653C221.993 167.653 221.991 167.654 221.99 167.654C221.99 167.654 221.99 167.654 221.989 167.654C221.989 167.654 221.989 167.654 222.041 168.573ZM212.833 189.75C213.214 190.588 213.215 190.588 213.216 190.587C213.216 190.587 213.216 190.587 213.217 190.587C213.218 190.586 213.219 190.586 213.221 190.585C213.223 190.584 213.227 190.582 213.231 190.58C213.239 190.577 213.249 190.572 213.262 190.566C213.287 190.553 213.322 190.536 213.366 190.514C213.452 190.47 213.574 190.405 213.726 190.318C214.028 190.144 214.45 189.88 214.948 189.512C215.945 188.776 217.249 187.622 218.519 185.929C221.07 182.527 223.432 177.018 222.96 168.522L221.121 168.624C221.57 176.701 219.328 181.78 217.046 184.824C215.898 186.353 214.728 187.385 213.854 188.031C213.417 188.353 213.055 188.579 212.808 188.721C212.684 188.793 212.589 188.843 212.528 188.874C212.498 188.89 212.476 188.9 212.463 188.907C212.456 188.91 212.452 188.912 212.45 188.912C212.449 188.913 212.449 188.913 212.449 188.913C212.45 188.913 212.45 188.913 212.45 188.912C212.451 188.912 212.451 188.912 212.451 188.912C212.452 188.912 212.452 188.912 212.833 189.75ZM235.832 217.184C233.482 205.904 227.83 198.824 222.747 194.568C220.209 192.444 217.817 191.025 216.053 190.136C215.171 189.691 214.445 189.378 213.935 189.175C213.68 189.073 213.479 188.999 213.339 188.949C213.269 188.925 213.214 188.906 213.176 188.893C213.157 188.887 213.142 188.882 213.131 188.878C213.125 188.876 213.121 188.875 213.117 188.874C213.116 188.873 213.114 188.873 213.113 188.873C213.113 188.872 213.112 188.872 213.112 188.872C213.111 188.872 213.111 188.872 212.833 189.75C212.556 190.628 212.556 190.628 212.555 190.628C212.555 190.628 212.555 190.627 212.555 190.627C212.555 190.627 212.555 190.627 212.555 190.628C212.556 190.628 212.558 190.628 212.561 190.629C212.567 190.631 212.577 190.635 212.591 190.639C212.619 190.649 212.664 190.664 212.723 190.685C212.842 190.727 213.021 190.793 213.253 190.886C213.718 191.071 214.394 191.362 215.224 191.78C216.884 192.617 219.153 193.961 221.565 195.98C226.379 200.011 231.776 206.742 234.029 217.559L235.832 217.184ZM159.443 282.743C194.153 282.281 214.476 271.628 225.516 258.121C236.538 244.637 238.181 228.459 235.832 217.184L234.029 217.559C236.284 228.382 234.705 243.97 224.09 256.956C213.493 269.92 193.763 280.444 159.419 280.902L159.443 282.743ZM65.5164 211.847C64.6172 212.045 64.6174 212.046 64.6176 212.047C64.6178 212.048 64.618 212.049 64.6184 212.051C64.619 212.053 64.6198 212.057 64.6209 212.062C64.6232 212.072 64.6264 212.086 64.6306 212.104C64.639 212.141 64.6514 212.195 64.668 212.264C64.7012 212.404 64.7513 212.609 64.8196 212.874C64.9561 213.405 65.1657 214.179 65.4598 215.161C66.0478 217.125 66.9743 219.923 68.3315 223.273C71.0451 229.973 75.4861 238.896 82.3983 247.791C96.2429 265.607 119.98 283.269 159.443 282.743L159.419 280.902C120.619 281.419 97.3996 264.094 83.8524 246.661C77.0688 237.932 72.7053 229.166 70.0383 222.582C68.7053 219.291 67.7975 216.548 67.2238 214.633C66.937 213.675 66.7339 212.924 66.603 212.415C66.5375 212.161 66.4901 211.967 66.4593 211.838C66.4439 211.773 66.4327 211.725 66.4255 211.693C66.4219 211.677 66.4192 211.666 66.4176 211.658C66.4168 211.655 66.4162 211.652 66.4158 211.65C66.4157 211.65 66.4156 211.649 66.4155 211.649C66.4155 211.649 66.4155 211.649 65.5164 211.847ZM64.5956 168.573V211.847H66.4371V168.573H64.5956ZM49.864 169.494H65.5164V167.652H49.864V169.494ZM50.7847 281.823V168.573H48.9432V281.823H50.7847ZM31.4493 282.743H49.864V280.902H31.4493V282.743ZM30.5286 168.573V281.823H32.3701V168.573H30.5286ZM0.145312 128.099C0.75343 142.694 8.53375 153.039 16.0941 159.702C19.8759 163.035 23.6171 165.46 26.4131 167.053C27.812 167.85 28.9766 168.44 29.7946 168.832C30.2037 169.028 30.5263 169.175 30.7484 169.273C30.8594 169.322 30.9454 169.359 31.0045 169.385C31.034 169.397 31.0569 169.407 31.0728 169.414C31.0807 169.417 31.0869 169.419 31.0914 169.421C31.0936 169.422 31.0954 169.423 31.0968 169.424C31.0974 169.424 31.0981 169.424 31.0984 169.424C31.099 169.424 31.0995 169.425 31.4493 168.573C31.7992 167.721 31.7995 167.721 31.7996 167.721C31.7995 167.721 31.7995 167.721 31.7993 167.721C31.7988 167.721 31.798 167.721 31.7967 167.72C31.7941 167.719 31.7897 167.717 31.7836 167.715C31.7714 167.71 31.7524 167.702 31.7266 167.691C31.6752 167.669 31.597 167.635 31.494 167.589C31.2878 167.498 30.982 167.359 30.5904 167.172C29.8071 166.796 28.6816 166.226 27.3247 165.453C24.6094 163.906 20.9774 161.551 17.3116 158.32C9.97702 151.856 2.56529 141.945 1.98518 128.022L0.145312 128.099ZM36.9737 78.3414C36.8404 77.4303 36.8398 77.4304 36.839 77.4305C36.8385 77.4306 36.8375 77.4307 36.8366 77.4309C36.8348 77.4312 36.8324 77.4315 36.8294 77.432C36.8234 77.4329 36.8152 77.4341 36.8047 77.4358C36.7838 77.439 36.7539 77.4438 36.7153 77.4502C36.6381 77.4629 36.5263 77.4822 36.3822 77.5089C36.0939 77.5624 35.6763 77.646 35.1482 77.7679C34.0924 78.0115 32.5937 78.4085 30.8044 79.0245C27.2283 80.2556 22.4755 82.3671 17.7765 85.8913C8.33831 92.97 -0.788648 105.684 0.145312 128.099L1.98518 128.022C1.07767 106.242 9.90496 94.0968 18.8814 87.3645C23.3897 83.9833 27.9593 81.9515 31.4038 80.7657C33.1247 80.1732 34.5608 79.7933 35.5623 79.5622C36.0629 79.4467 36.4545 79.3684 36.7183 79.3194C36.8502 79.295 36.9501 79.2778 37.0157 79.2669C37.0485 79.2615 37.0727 79.2577 37.088 79.2553C37.0957 79.2541 37.1011 79.2533 37.1043 79.2528C37.1059 79.2526 37.1069 79.2524 37.1074 79.2523C37.1076 79.2523 37.1075 79.2523 37.1077 79.2523C37.1074 79.2523 37.1071 79.2524 36.9737 78.3414ZM111.553 0.0792933C92.74 0.0792933 78.5697 4.95983 67.9132 12.3273C57.2642 19.6895 50.1793 29.4966 45.4668 39.2708C40.7556 49.0422 38.4046 58.8019 37.23 66.1107C36.6423 69.7673 36.3481 72.8164 36.2008 74.9548C36.1272 76.0242 36.0902 76.8663 36.0717 77.4432C36.0624 77.7317 36.0577 77.9539 36.0554 78.1052C36.0542 78.1808 36.0536 78.2387 36.0533 78.2783C36.0532 78.298 36.0531 78.3132 36.053 78.3238C36.053 78.329 36.053 78.3331 36.053 78.3361C36.053 78.3375 36.053 78.3389 36.053 78.3396C36.053 78.3406 36.053 78.3414 36.9737 78.3414C37.8945 78.3414 37.8945 78.3415 37.8945 78.3413C37.8945 78.3409 37.8945 78.3404 37.8945 78.3396C37.8945 78.3378 37.8945 78.3349 37.8945 78.3308C37.8945 78.3226 37.8946 78.3097 37.8947 78.2923C37.895 78.2576 37.8955 78.2045 37.8966 78.1338C37.8988 77.9924 37.9033 77.7803 37.9122 77.5024C37.9301 76.9464 37.9659 76.1268 38.0379 75.0814C38.182 72.9902 38.4705 69.997 39.0481 66.4029C40.2041 59.2101 42.5143 49.6345 47.1255 40.0706C51.7353 30.5094 58.634 20.9812 68.9604 13.842C79.2794 6.70788 93.0762 1.92075 111.553 1.92075V0.0792933ZM109.709 96.7566H36.051V98.598H109.709V96.7566ZM101.422 127.097C100.97 117.604 103.229 110.392 105.588 105.562C106.768 103.146 107.974 101.325 108.879 100.113C109.331 99.5073 109.709 99.0545 109.969 98.7563C110.1 98.6072 110.201 98.4968 110.268 98.4254C110.301 98.3897 110.326 98.3638 110.342 98.3476C110.35 98.3395 110.355 98.3338 110.358 98.3306C110.36 98.329 110.361 98.328 110.361 98.3277C110.361 98.3275 110.361 98.3274 110.361 98.3276C110.361 98.3276 110.361 98.3278 110.361 98.3278C110.361 98.3281 110.36 98.3284 109.709 97.6773C109.058 97.0263 109.058 97.0266 109.058 97.027C109.057 97.0272 109.057 97.0276 109.057 97.028C109.056 97.0287 109.055 97.0296 109.054 97.0307C109.052 97.0328 109.049 97.0355 109.046 97.0388C109.039 97.0455 109.03 97.0547 109.019 97.0663C108.997 97.0896 108.965 97.1229 108.924 97.1661C108.843 97.2525 108.728 97.3786 108.583 97.5442C108.293 97.8755 107.886 98.3649 107.404 99.0108C106.439 100.303 105.17 102.222 103.933 104.754C101.458 109.823 99.1138 117.342 99.5825 127.184L101.422 127.097ZM147.407 168.575C131.568 169.48 120.331 163.833 112.924 155.641C105.492 147.421 101.874 136.585 101.422 127.097L99.5825 127.184C100.051 137.032 103.799 148.293 111.558 156.876C119.344 165.488 131.125 171.35 147.512 170.414L147.407 168.575ZM184.289 140.952C183.381 140.795 183.381 140.795 183.381 140.794C183.381 140.795 183.381 140.794 183.381 140.794C183.381 140.794 183.381 140.795 183.381 140.796C183.381 140.798 183.38 140.801 183.379 140.806C183.377 140.816 183.374 140.833 183.37 140.855C183.362 140.9 183.348 140.969 183.328 141.061C183.289 141.245 183.227 141.52 183.136 141.873C182.954 142.58 182.658 143.6 182.202 144.833C181.29 147.302 179.747 150.614 177.222 153.98C172.193 160.686 163.228 167.671 147.407 168.575L147.512 170.414C163.916 169.476 173.366 162.19 178.695 155.085C181.35 151.546 182.971 148.067 183.929 145.471C184.409 144.173 184.724 143.092 184.92 142.332C185.017 141.952 185.086 141.651 185.13 141.443C185.152 141.339 185.168 141.258 185.179 141.202C185.184 141.173 185.188 141.151 185.191 141.136C185.192 141.128 185.194 141.122 185.194 141.117C185.195 141.115 185.195 141.113 185.195 141.111C185.196 141.111 185.196 141.11 185.196 141.109C185.196 141.109 185.196 141.108 184.289 140.952ZM201.764 161.943C200.608 156.311 196.297 150.855 192.409 146.879C190.447 144.873 188.557 143.209 187.157 142.046C186.457 141.464 185.879 141.007 185.474 140.694C185.271 140.537 185.112 140.417 185.003 140.335C184.948 140.294 184.906 140.263 184.877 140.241C184.862 140.231 184.851 140.222 184.843 140.217C184.84 140.214 184.836 140.212 184.834 140.21C184.833 140.209 184.832 140.209 184.832 140.208C184.831 140.208 184.831 140.208 184.831 140.208C184.831 140.207 184.831 140.207 184.289 140.952C183.747 141.696 183.747 141.696 183.747 141.696C183.747 141.696 183.747 141.696 183.747 141.696C183.747 141.696 183.747 141.697 183.748 141.697C183.749 141.698 183.752 141.7 183.755 141.702C183.761 141.706 183.77 141.713 183.783 141.723C183.809 141.742 183.847 141.77 183.899 141.809C184.001 141.885 184.153 142 184.348 142.151C184.737 142.452 185.299 142.896 185.98 143.462C187.345 144.596 189.186 146.217 191.092 148.167C194.941 152.101 198.917 157.234 199.96 162.314L201.764 161.943ZM193.496 186.067C194.242 186.608 194.242 186.607 194.242 186.607C194.242 186.607 194.242 186.607 194.243 186.606C194.243 186.606 194.244 186.605 194.244 186.604C194.246 186.602 194.248 186.599 194.251 186.595C194.256 186.588 194.263 186.577 194.273 186.563C194.293 186.536 194.321 186.496 194.357 186.444C194.43 186.341 194.535 186.189 194.666 185.993C194.93 185.601 195.303 185.033 195.741 184.317C196.618 182.888 197.765 180.868 198.842 178.504C200.98 173.815 202.926 167.604 201.764 161.943L199.96 162.314C201 167.382 199.263 173.141 197.167 177.74C196.128 180.019 195.02 181.972 194.172 183.354C193.748 184.045 193.39 184.592 193.139 184.965C193.014 185.151 192.915 185.293 192.848 185.389C192.815 185.436 192.79 185.472 192.773 185.495C192.765 185.507 192.759 185.515 192.755 185.521C192.753 185.523 192.752 185.525 192.751 185.526C192.751 185.527 192.75 185.527 192.75 185.527C192.75 185.528 192.75 185.527 192.75 185.528C192.75 185.527 192.75 185.527 193.496 186.067ZM138.423 189.735C156.777 186.263 170.524 185.578 179.667 185.757C184.239 185.846 187.659 186.152 189.93 186.433C191.065 186.574 191.913 186.708 192.473 186.807C192.753 186.856 192.961 186.897 193.098 186.924C193.166 186.938 193.216 186.949 193.248 186.956C193.264 186.959 193.276 186.962 193.283 186.963C193.287 186.964 193.289 186.965 193.29 186.965C193.291 186.965 193.291 186.965 193.292 186.965C193.292 186.965 193.291 186.965 193.291 186.965C193.291 186.965 193.291 186.965 193.496 186.067C193.701 185.17 193.7 185.17 193.7 185.17C193.7 185.17 193.699 185.169 193.699 185.169C193.698 185.169 193.696 185.169 193.695 185.168C193.692 185.168 193.687 185.167 193.682 185.166C193.671 185.163 193.656 185.16 193.636 185.155C193.596 185.147 193.538 185.135 193.463 185.119C193.311 185.089 193.088 185.046 192.792 184.994C192.202 184.89 191.323 184.75 190.156 184.606C187.823 184.316 184.339 184.006 179.703 183.916C170.431 183.734 156.557 184.43 138.081 187.925L138.423 189.735ZM94.9778 231.183C95.8836 231.348 95.8835 231.349 95.8835 231.349C95.8835 231.349 95.8835 231.349 95.8836 231.348C95.8837 231.348 95.8838 231.347 95.8841 231.345C95.8847 231.342 95.8857 231.337 95.8871 231.33C95.8899 231.315 95.8943 231.292 95.9005 231.261C95.9129 231.198 95.9322 231.103 95.9592 230.978C96.0132 230.727 96.098 230.354 96.2192 229.875C96.4618 228.916 96.8503 227.531 97.4308 225.845C98.5926 222.471 100.52 217.899 103.58 213.115C109.692 203.559 120.313 193.161 138.423 189.735L138.081 187.925C119.362 191.467 108.346 202.245 102.028 212.123C98.873 217.057 96.8874 221.767 95.6897 225.246C95.0906 226.986 94.6878 228.42 94.434 229.423C94.3071 229.925 94.2174 230.319 94.159 230.59C94.1299 230.726 94.1085 230.83 94.0942 230.902C94.0871 230.938 94.0817 230.966 94.078 230.986C94.0762 230.995 94.0748 231.003 94.0738 231.008C94.0732 231.011 94.0728 231.013 94.0725 231.015C94.0724 231.016 94.0722 231.017 94.0722 231.017C94.072 231.018 94.0719 231.018 94.9778 231.183ZM83.0083 208.165C82.1161 208.393 82.1162 208.393 82.1163 208.393C82.1163 208.393 82.1164 208.394 82.1165 208.394C82.1167 208.395 82.1169 208.396 82.1172 208.397C82.1179 208.399 82.1187 208.403 82.1199 208.407C82.1221 208.416 82.1254 208.429 82.1298 208.445C82.1384 208.478 82.1512 208.527 82.168 208.59C82.2017 208.716 82.2518 208.9 82.318 209.136C82.4506 209.607 82.648 210.286 82.9091 211.12C83.4309 212.787 84.2086 215.079 85.2323 217.578C87.2623 222.536 90.3235 228.474 94.3854 231.888L95.5702 230.478C91.8757 227.373 88.9522 221.803 86.9365 216.881C85.9373 214.441 85.1769 212.2 84.6664 210.57C84.4113 209.755 84.219 209.094 84.0908 208.638C84.0268 208.41 83.9787 208.233 83.9469 208.114C83.931 208.054 83.9192 208.009 83.9114 207.98C83.9075 207.965 83.9047 207.954 83.9028 207.947C83.9019 207.943 83.9012 207.941 83.9008 207.939C83.9006 207.938 83.9005 207.938 83.9004 207.937C83.9004 207.937 83.9004 207.937 83.9003 207.937C83.9003 207.937 83.9004 207.937 83.0083 208.165ZM82.0875 114.25V208.165H83.929V114.25H82.0875ZM63.6729 115.171H83.0083V113.33H63.6729V115.171ZM64.5937 151.08V114.25H62.7522V151.08H64.5937ZM36.051 152H63.6729V150.159H36.051V152ZM17.6364 123.458C17.6364 133.883 22.1476 141.011 26.653 145.516C28.9014 147.764 31.1486 149.361 32.8358 150.397C33.6801 150.915 34.3863 151.295 34.8851 151.546C35.1346 151.672 35.3324 151.765 35.47 151.829C35.5388 151.86 35.5926 151.884 35.6302 151.901C35.649 151.909 35.6638 151.915 35.6745 151.92C35.6798 151.922 35.6841 151.924 35.6873 151.926C35.6889 151.926 35.6902 151.927 35.6913 151.927C35.6918 151.927 35.6924 151.928 35.6927 151.928C35.6933 151.928 35.6937 151.928 36.051 151.08C36.4083 150.231 36.4086 150.231 36.4089 150.231C36.4089 150.231 36.4091 150.231 36.4091 150.231C36.4091 150.231 36.4089 150.231 36.4084 150.231C36.4074 150.231 36.4053 150.23 36.4022 150.228C36.396 150.226 36.3857 150.221 36.3714 150.215C36.3429 150.203 36.2984 150.183 36.2391 150.155C36.1204 150.101 35.9424 150.017 35.7135 149.901C35.2557 149.671 34.5951 149.316 33.7994 148.828C32.2065 147.85 30.0803 146.339 27.9551 144.214C23.7137 139.973 19.4779 133.29 19.4779 123.458H17.6364ZM36.051 97.6773C35.7737 96.7993 35.7732 96.7995 35.7726 96.7997C35.7723 96.7998 35.7717 96.8 35.7711 96.8001C35.77 96.8005 35.7686 96.801 35.7669 96.8015C35.7636 96.8026 35.7592 96.804 35.7537 96.8057C35.7429 96.8093 35.7278 96.8142 35.7088 96.8206C35.6706 96.8334 35.6163 96.8519 35.547 96.8765C35.4083 96.9256 35.2092 96.999 34.9585 97.099C34.4571 97.2988 33.7478 97.6051 32.9001 98.0364C31.2061 98.8983 28.9491 100.264 26.6901 102.286C22.1556 106.343 17.6364 113.026 17.6364 123.458H19.4779C19.4779 113.635 23.7056 107.427 27.918 103.658C30.0326 101.766 32.149 100.485 33.7351 99.6777C34.5274 99.2746 35.1849 98.991 35.6402 98.8096C35.8678 98.7189 36.0445 98.6538 36.1621 98.6121C36.2209 98.5913 36.2648 98.5763 36.2929 98.567C36.3069 98.5623 36.317 98.559 36.3229 98.557C36.3259 98.5561 36.3278 98.5554 36.3287 98.5552C36.3292 98.555 36.3294 98.5549 36.3293 98.555C36.3293 98.555 36.329 98.5551 36.329 98.5551C36.3287 98.5552 36.3283 98.5553 36.051 97.6773ZM228.482 151.079C243.737 151.079 256.104 138.712 256.104 123.457H254.263C254.263 137.695 242.72 149.237 228.482 149.237V151.079ZM201.216 127.903C203.343 141.044 214.74 151.079 228.482 151.079V149.237C215.658 149.237 205.019 139.873 203.034 127.609L201.216 127.903ZM218.354 140.03C210.804 140.03 204.5 134.683 203.027 127.569L201.224 127.943C202.871 135.895 209.913 141.871 218.354 141.871V140.03ZM234.006 124.377C234.006 133.022 226.998 140.03 218.354 140.03V141.871C228.015 141.871 235.848 134.039 235.848 124.377H234.006ZM218.354 108.725C226.998 108.725 234.006 115.733 234.006 124.377H235.848C235.848 114.716 228.015 106.884 218.354 106.884V108.725ZM202.706 123.987C202.913 115.523 209.84 108.725 218.354 108.725V106.884C208.838 106.884 201.097 114.481 200.865 123.941L202.706 123.987ZM200.86 123.457C200.86 123.632 200.862 123.807 200.865 123.981L202.706 123.947C202.703 123.784 202.702 123.621 202.702 123.457H200.86ZM228.482 95.8349C213.227 95.8349 200.86 108.202 200.86 123.457H202.702C202.702 109.219 214.244 97.6764 228.482 97.6764V95.8349ZM256.104 123.457C256.104 108.202 243.737 95.8349 228.482 95.8349V97.6764C242.72 97.6764 254.263 109.219 254.263 123.457H256.104ZM167.716 125.298C167.716 139.537 156.174 151.079 141.935 151.079V152.92C157.191 152.92 169.557 140.554 169.557 125.298H167.716ZM141.935 99.5179C156.174 99.5179 167.716 111.06 167.716 125.298H169.557C169.557 110.043 157.191 97.6765 141.935 97.6765V99.5179ZM116.487 121.149C118.471 108.884 129.11 99.5179 141.935 99.5179V97.6765C128.192 97.6765 116.795 107.712 114.669 120.855L116.487 121.149ZM131.807 106.884C123.365 106.884 116.322 112.862 114.676 120.816L116.48 121.189C117.952 114.073 124.256 108.725 131.807 108.725V106.884ZM149.301 124.377C149.301 114.716 141.469 106.884 131.807 106.884V108.725C140.452 108.725 147.46 115.733 147.46 124.377H149.301ZM131.807 141.871C141.469 141.871 149.301 134.039 149.301 124.377H147.46C147.46 133.022 140.452 140.03 131.807 140.03V141.871ZM114.319 124.809C114.548 134.271 122.29 141.871 131.807 141.871V140.03C123.292 140.03 116.364 133.23 116.16 124.764L114.319 124.809ZM116.155 125.298C116.155 125.133 116.157 124.968 116.16 124.804L114.318 124.769C114.315 124.945 114.314 125.122 114.314 125.298H116.155ZM141.935 151.079C127.697 151.079 116.155 139.537 116.155 125.298H114.314C114.314 140.554 126.68 152.92 141.935 152.92V151.079ZM199.943 222.895H131.809V224.737H199.943V222.895ZM166.797 246.834C179.536 246.834 188.052 241.161 193.364 235.495C196.015 232.667 197.87 229.841 199.063 227.72C199.659 226.659 200.092 225.773 200.377 225.147C200.519 224.835 200.625 224.587 200.695 224.415C200.731 224.33 200.757 224.263 200.776 224.216C200.785 224.193 200.792 224.175 200.797 224.162C200.799 224.156 200.801 224.151 200.803 224.147C200.803 224.145 200.804 224.143 200.804 224.142C200.805 224.141 200.805 224.141 200.805 224.141C200.805 224.14 200.805 224.139 199.943 223.816C199.081 223.493 199.081 223.493 199.081 223.492C199.081 223.492 199.081 223.492 199.081 223.492C199.081 223.492 199.081 223.493 199.081 223.494C199.08 223.495 199.079 223.498 199.078 223.502C199.074 223.511 199.069 223.524 199.062 223.543C199.047 223.58 199.024 223.637 198.993 223.713C198.93 223.865 198.833 224.093 198.701 224.384C198.435 224.967 198.026 225.807 197.458 226.817C196.32 228.84 194.549 231.539 192.021 234.235C186.975 239.618 178.918 244.993 166.797 244.993V246.834ZM131.809 223.816C130.972 224.2 130.972 224.2 130.973 224.201C130.973 224.201 130.973 224.202 130.973 224.202C130.974 224.203 130.975 224.205 130.975 224.207C130.977 224.211 130.98 224.216 130.982 224.222C130.988 224.235 130.997 224.253 131.008 224.276C131.03 224.322 131.062 224.388 131.104 224.473C131.189 224.644 131.314 224.891 131.482 225.202C131.818 225.826 132.323 226.71 133.007 227.768C134.373 229.884 136.458 232.703 139.336 235.523C145.099 241.168 154.066 246.834 166.797 246.834V244.993C154.669 244.993 146.141 239.611 140.625 234.207C137.864 231.503 135.863 228.797 134.554 226.769C133.899 225.756 133.419 224.914 133.104 224.329C132.946 224.036 132.83 223.808 132.754 223.655C132.716 223.579 132.688 223.521 132.67 223.483C132.661 223.465 132.655 223.451 132.651 223.442C132.649 223.438 132.647 223.435 132.647 223.433C132.646 223.433 132.646 223.432 132.646 223.432C132.646 223.432 132.646 223.432 132.646 223.432C132.646 223.432 132.646 223.433 131.809 223.816Z" fill="white"/>
<path d="M386.129 219.944C383.158 219.944 380.806 219.078 379.074 217.345C377.465 215.488 376.784 213.075 377.031 210.104L385.943 98.3342C386.067 95.3635 386.995 93.0737 388.728 91.4646C390.585 89.8555 392.937 89.051 395.783 89.051H431.802C451.483 89.051 466.769 94.3733 477.661 105.018C488.553 115.663 494 130.454 494 149.392C494 164.121 491.338 176.746 486.016 187.267C480.694 197.788 472.896 205.896 462.622 211.589C452.473 217.159 440.219 219.944 425.861 219.944H386.129ZM424.561 203.977C441.147 203.977 453.587 199.335 461.88 190.052C470.297 180.769 474.505 167.154 474.505 149.206C474.505 134.601 470.792 123.584 463.365 116.158C455.938 108.731 444.799 105.018 429.946 105.018H404.51L396.712 203.977H424.561ZM559.928 221.429C540.124 221.429 524.59 216.973 513.326 208.062C510.232 205.834 508.684 203.049 508.684 199.707C508.684 197.479 509.303 195.622 510.541 194.137C511.903 192.651 513.574 191.909 515.554 191.909C517.287 191.909 518.958 192.466 520.567 193.58C531.459 201.749 544.765 205.834 560.485 205.834C570.387 205.834 577.937 204.101 583.136 200.635C588.458 197.046 591.119 192.033 591.119 185.596C591.119 181.512 589.758 178.17 587.035 175.57C584.435 172.971 581.155 170.929 577.194 169.443C573.234 167.834 567.726 165.978 560.67 163.874C551.511 161.15 544.023 158.551 538.205 156.076C532.511 153.476 527.622 149.763 523.538 144.936C519.577 139.985 517.596 133.548 517.596 125.627C517.596 117.953 519.639 111.269 523.723 105.575C527.932 99.7576 533.811 95.3017 541.361 92.2073C548.912 89.1129 557.762 87.5656 567.911 87.5656C576.947 87.5656 585.364 88.8653 593.162 91.4646C601.083 94.0639 607.581 97.5915 612.656 102.047C614.761 103.78 615.813 106.008 615.813 108.731C615.813 110.959 615.07 112.878 613.585 114.487C612.223 116.096 610.49 116.901 608.386 116.901C606.653 116.901 604.673 116.158 602.445 114.673C598.113 111.207 592.914 108.422 586.849 106.318C580.784 104.214 574.348 103.161 567.54 103.161C557.762 103.161 550.211 105.018 544.889 108.731C539.567 112.445 536.905 117.643 536.905 124.327C536.905 128.783 538.329 132.496 541.176 135.467C544.023 138.314 547.55 140.604 551.759 142.337C555.967 143.946 561.722 145.802 569.025 147.906C577.937 150.506 585.116 153.043 590.562 155.519C596.008 157.87 600.65 161.336 604.487 165.916C608.448 170.496 610.428 176.499 610.428 183.925C610.428 195.56 605.911 204.72 596.875 211.404C587.963 218.087 575.647 221.429 559.928 221.429ZM803.005 93.8782C803.748 91.8978 804.924 90.4125 806.533 89.4223C808.266 88.4321 810.061 87.937 811.917 87.937C814.145 87.937 816.064 88.6177 817.673 89.9793C819.282 91.3408 820.087 93.1975 820.087 95.5492C820.087 96.9107 819.715 98.4579 818.973 100.191L769.772 214.745C768.905 216.85 767.544 218.459 765.687 219.573C763.83 220.687 761.85 221.244 759.746 221.244C757.642 221.244 755.661 220.625 753.804 219.387C752.072 218.149 750.896 216.416 750.277 214.189L724.284 118.943L683.066 214.745C682.2 216.85 680.839 218.459 678.982 219.573C677.125 220.687 675.145 221.244 673.041 221.244C670.936 221.244 668.956 220.625 667.099 219.387C665.367 218.149 664.191 216.416 663.572 214.189L632.38 100.005C632.133 99.2625 632.009 98.2104 632.009 96.8489C632.009 94.1258 632.937 91.9597 634.794 90.3506C636.774 88.7415 639.064 87.937 641.663 87.937C643.644 87.937 645.377 88.494 646.862 89.608C648.471 90.5982 649.523 92.1454 650.018 94.2496L675.64 192.837L717.6 94.6209C718.466 92.5167 719.766 90.9076 721.499 89.7936C723.232 88.5559 725.027 87.937 726.883 87.937C728.864 87.937 730.658 88.5559 732.267 89.7936C733.877 91.0314 734.929 92.7024 735.424 94.8066L761.231 193.394L803.005 93.8782ZM945.868 88.1226C948.715 88.1226 950.943 88.9891 952.552 90.7219C954.161 92.4548 954.904 94.8065 954.78 97.7772L945.868 211.589C945.621 214.436 944.568 216.726 942.712 218.459C940.979 220.068 938.689 220.872 935.842 220.872C932.995 220.872 930.706 220.006 928.973 218.273C927.364 216.54 926.683 214.189 926.93 211.218L930.829 161.274H857.863L853.964 211.589C853.717 214.436 852.665 216.726 850.808 218.459C849.075 220.068 846.785 220.872 843.939 220.872C841.092 220.872 838.802 220.006 837.069 218.273C835.46 216.54 834.779 214.189 835.027 211.218L843.939 97.4058C844.062 94.559 845.053 92.331 846.909 90.7219C848.766 88.9891 851.118 88.1226 853.964 88.1226C856.811 88.1226 859.039 88.9891 860.648 90.7219C862.257 92.4548 863 94.8065 862.876 97.7772L859.163 145.678H932.129L935.842 97.4058C935.966 94.559 936.956 92.331 938.813 90.7219C940.67 88.9891 943.021 88.1226 945.868 88.1226Z" fill="white"/>
<circle cx="325.912" cy="147.984" r="15.472" fill="white"/>
</svg>
